<svg width="635" height="636" xmlns="http://www.w3.org/2000/svg" xmlns:xlink="http://www.w3.org/1999/xlink" xml:space="preserve" overflow="hidden"><g transform="translate(-99 -18)"><path d="M549.01 181.901C549.008 160.799 533.676 142.823 512.837 139.494 506.288 123.196 490.508 112.498 472.943 112.448 462.383 112.472 452.208 116.412 444.385 123.505 440.143 118.802 435.004 114.995 429.27 112.306 428.155 85.7184 405.697 65.0696 379.11 66.1849 361.071 66.9416 344.969 77.72 337.393 94.109 330.344 93.3973 323.225 94.279 316.562 96.6887 309.645 91.7172 301.341 89.0429 292.822 89.0422 289.889 89.0429 286.965 89.3657 284.102 90.0046 274.774 69.5259 250.61 60.4869 230.131 69.8156 218.55 75.0907 210.099 85.4743 207.285 97.8853 185.383 102.797 171.609 124.533 176.521 146.436 176.521 146.436 176.521 146.436 176.521 146.436 156.459 150.266 141.274 166.786 139.143 187.099 114.651 194.202 100.554 219.815 107.658 244.307 109.119 249.347 111.429 254.102 114.489 258.366L166.379 568.854 468.709 568.854 523.073 243.555C527.065 236.924 529.172 229.329 529.167 221.589 529.167 220.464 529.122 219.328 529.024 218.185 541.512 210.36 549.071 196.638 549.01 181.901ZM447.957 145.521C465.501 145.514 479.73 159.73 479.737 177.274 479.742 188.133 474.2 198.241 465.043 204.076L460.114 207.229 462.646 212.507C468.7 225.03 465.804 240.043 455.528 249.416 443.345 251.088 421.305 253.528 408.755 254.702 410.01 252.855 410.985 250.832 411.648 248.7 415.948 234.804 412.316 219.67 402.179 209.24 411.583 189.242 402.995 165.407 382.998 156.003 379.57 154.391 375.93 153.274 372.188 152.685 385.034 142.126 403.877 143.378 415.214 155.543L420.026 160.659 424.838 155.543C430.813 149.129 439.192 145.497 447.957 145.521ZM324.205 257.969 320.969 257.969C334.082 234.948 326.558 205.674 303.969 191.83 303.729 188.174 303.08 184.558 302.033 181.048 310.917 171.715 325.22 170.111 335.951 177.243L341.044 180.595 344.804 175.796C353.894 164.122 370.726 162.029 382.4 171.119 393.419 179.7 395.997 195.307 388.322 206.976L384.969 212.066 389.768 215.826C401.409 224.705 403.648 241.339 394.77 252.979 394.019 253.963 393.201 254.893 392.322 255.762 370.278 257.198 347.657 257.969 324.205 257.969ZM200.133 251.977C190.048 234.878 195.734 212.841 212.833 202.756 213.517 202.353 214.213 201.973 214.922 201.616L218.527 199.774 218.488 194.924C218.538 174.946 234.773 158.79 254.751 158.839 274.617 158.888 290.725 174.948 290.835 194.813L290.699 199.723 294.403 201.616C312.11 210.512 319.254 232.078 310.358 249.785 308.877 252.734 306.995 255.464 304.768 257.899 269.809 257.792 234.881 255.816 200.133 251.977ZM327.096 107.642C328.919 107.302 330.768 107.118 332.622 107.093 335.162 107.1 337.694 107.384 340.173 107.939L346.032 109.231 347.892 103.527C353.852 85.1674 373.568 75.1152 391.929 81.0756 406.341 85.7541 416.098 99.187 416.088 114.34 416.088 114.78 416.056 115.213 416.022 115.645L415.699 121.304 420.396 122.951C426.478 125.101 431.842 128.9 435.889 133.924L435.838 134.085C430.087 135.64 424.709 138.341 420.029 142.026 400.684 126.634 372.524 129.838 357.132 149.183 355.9 150.732 354.771 152.361 353.755 154.06 347.925 155.93 342.606 159.12 338.21 163.382 333.53 161.175 328.464 159.901 323.297 159.631 322.731 159.601 321.632 159.589 321.225 159.586 321.137 159.586 321.121 159.535 321.185 159.474 335.408 145.888 337.895 124.082 327.096 107.642ZM213.708 110.221 219.069 109.672 219.618 104.305C221.058 89.1652 234.499 78.0594 249.638 79.4994 261.129 80.5928 270.719 88.7366 273.659 99.8987L275.603 107.089 282.509 104.311C296.708 98.6016 312.847 105.485 318.556 119.684 324.265 133.883 317.382 150.022 303.183 155.731 299.891 157.055 296.376 157.734 292.828 157.731 292.598 157.722 292.37 157.7 292.143 157.665L286.521 157.262C265.831 139.645 234.777 142.136 217.161 162.827 216.493 163.61 215.851 164.414 215.235 165.238 200.013 164.626 188.17 151.791 188.781 136.57 189.335 122.79 199.981 111.536 213.709 110.22ZM146.645 198.942 152.135 197.42 152.135 191.823C152.191 174.972 164.93 160.869 181.688 159.106 187.643 168.713 197.298 175.438 208.373 177.693 206.675 182.23 205.658 186.993 205.356 191.828 190.764 200.79 181.886 216.698 181.92 233.822 181.944 239.393 182.932 244.919 184.84 250.154 162.879 247.282 141.416 243.612 120.452 239.144L119.94 239.035C115.767 221.302 126.76 203.545 144.492 199.373 145.205 199.205 145.923 199.061 146.645 198.942ZM177.58 555.625 127.182 254.054C155.353 259.691 183.794 263.881 212.394 266.607L237.526 555.625ZM310.885 555.625 250.803 555.625 225.773 267.769C253.14 270.019 281.384 271.198 310.885 271.198ZM324.115 555.625 324.115 271.198 324.205 271.198C353.674 271.198 381.889 270.023 409.227 267.776L384.197 555.625ZM457.511 555.625 397.474 555.625 422.606 266.617C451.236 263.89 479.708 259.697 507.909 254.054ZM518.98 208.656 514.407 210.879 515.375 215.866C515.746 217.751 515.934 219.667 515.938 221.589 515.926 228.404 513.532 235 509.169 240.235 497.562 242.635 485.819 244.791 473.943 246.703 479.569 235.976 480.554 223.412 476.67 211.938 495.8 196.109 498.476 167.77 482.648 148.64 475.399 139.879 465.101 134.191 453.827 132.72 466.309 122.126 485.016 123.658 495.609 136.14 498.39 139.418 500.426 143.261 501.574 147.404L502.853 151.977 507.595 152.229C523.982 153.074 536.581 167.042 535.736 183.429 535.178 194.267 528.754 203.939 518.98 208.656Z" stroke="#FF4B4B" stroke-width="3" fill="#FFC000" transform="matrix(1 0 0 1.00157 99 18)"/></g></svg>